<svg viewBox="0 0 330 200" xmlns="http://www.w3.org/2000/svg"><g><g><g><g><g><line x1="50" y1="178" x2="45" y2="178" style="visibility: inherit;" fill="rgb(0, 0, 0)" stroke="rgb(204, 204, 204)" stroke-width="1px"></line><line x1="50" y1="164.30769230769238" x2="45" y2="164.30769230769238" style="visibility: inherit;" fill="rgb(0, 0, 0)" stroke="rgb(204, 204, 204)" stroke-width="1px"></line><line x1="50" y1="150.61538461538467" x2="45" y2="150.61538461538467" style="visibility: inherit;" fill="rgb(0, 0, 0)" stroke="rgb(204, 204, 204)" stroke-width="1px"></line><line x1="50" y1="136.92307692307696" x2="45" y2="136.92307692307696" style="visibility: inherit;" fill="rgb(0, 0, 0)" stroke="rgb(204, 204, 204)" stroke-width="1px"></line><line x1="50" y1="123.23076923076924" x2="45" y2="123.23076923076924" style="visibility: inherit;" fill="rgb(0, 0, 0)" stroke="rgb(204, 204, 204)" stroke-width="1px"></line><line x1="50" y1="109.53846153846152" x2="45" y2="109.53846153846152" style="visibility: inherit;" fill="rgb(0, 0, 0)" stroke="rgb(204, 204, 204)" stroke-width="1px"></line><line x1="50" y1="95.84615384615383" x2="45" y2="95.84615384615383" style="visibility: inherit;" fill="rgb(0, 0, 0)" stroke="rgb(204, 204, 204)" stroke-width="1px"></line><line x1="50" y1="82.15384615384617" x2="45" y2="82.15384615384617" style="visibility: inherit;" fill="rgb(0, 0, 0)" stroke="rgb(204, 204, 204)" stroke-width="1px"></line><line x1="50" y1="68.46153846153848" x2="45" y2="68.46153846153848" style="visibility: inherit;" fill="rgb(0, 0, 0)" stroke="rgb(204, 204, 204)" stroke-width="1px"></line><line x1="50" y1="54.769230769230774" x2="45" y2="54.769230769230774" style="visibility: inherit;" fill="rgb(0, 0, 0)" stroke="rgb(204, 204, 204)" stroke-width="1px"></line><line x1="50" y1="41.07692307692304" x2="45" y2="41.07692307692304" style="visibility: inherit;" fill="rgb(0, 0, 0)" stroke="rgb(204, 204, 204)" stroke-width="1px"></line><line x1="50" y1="27.38461538461536" x2="45" y2="27.38461538461536" style="visibility: inherit;" fill="rgb(0, 0, 0)" stroke="rgb(204, 204, 204)" stroke-width="1px"></line><line x1="50" y1="13.69230769230765" x2="45" y2="13.69230769230765" style="visibility: inherit;" fill="rgb(0, 0, 0)" stroke="rgb(204, 204, 204)" stroke-width="1px"></line><line x1="50" y1="0" x2="45" y2="0" style="visibility: inherit;" fill="rgb(0, 0, 0)" stroke="rgb(204, 204, 204)" stroke-width="1px"></line></g><g transform="translate(40, 0)"><text x="0" y="178" dx="0em" dy="0.3em" style="text-anchor: end; visibility: hidden; font-family: &quot;Helvetica Neue&quot;, sans-serif; font-size: 12px; font-weight: 200;" fill="rgb(50, 49, 63)" stroke="none" stroke-width="1px">0.68</text><text x="0" y="164.30769230769238" dx="0em" dy="0.3em" style="text-anchor: end; visibility: inherit; font-family: &quot;Helvetica Neue&quot;, sans-serif; font-size: 12px; font-weight: 200;" fill="rgb(50, 49, 63)" stroke="none" stroke-width="1px">0.7</text><text x="0" y="150.61538461538467" dx="0em" dy="0.3em" style="text-anchor: end; visibility: hidden; font-family: &quot;Helvetica Neue&quot;, sans-serif; font-size: 12px; font-weight: 200;" fill="rgb(50, 49, 63)" stroke="none" stroke-width="1px">0.72</text><text x="0" y="136.92307692307696" dx="0em" dy="0.3em" style="text-anchor: end; visibility: inherit; font-family: &quot;Helvetica Neue&quot;, sans-serif; font-size: 12px; font-weight: 200;" fill="rgb(50, 49, 63)" stroke="none" stroke-width="1px">0.74</text><text x="0" y="123.23076923076924" dx="0em" dy="0.3em" style="text-anchor: end; visibility: hidden; font-family: &quot;Helvetica Neue&quot;, sans-serif; font-size: 12px; font-weight: 200;" fill="rgb(50, 49, 63)" stroke="none" stroke-width="1px">0.76</text><text x="0" y="109.53846153846152" dx="0em" dy="0.3em" style="text-anchor: end; visibility: inherit; font-family: &quot;Helvetica Neue&quot;, sans-serif; font-size: 12px; font-weight: 200;" fill="rgb(50, 49, 63)" stroke="none" stroke-width="1px">0.78</text><text x="0" y="95.84615384615383" dx="0em" dy="0.3em" style="text-anchor: end; visibility: hidden; font-family: &quot;Helvetica Neue&quot;, sans-serif; font-size: 12px; font-weight: 200;" fill="rgb(50, 49, 63)" stroke="none" stroke-width="1px">0.8</text><text x="0" y="82.15384615384617" dx="0em" dy="0.3em" style="text-anchor: end; visibility: inherit; font-family: &quot;Helvetica Neue&quot;, sans-serif; font-size: 12px; font-weight: 200;" fill="rgb(50, 49, 63)" stroke="none" stroke-width="1px">0.82</text><text x="0" y="68.46153846153848" dx="0em" dy="0.3em" style="text-anchor: end; visibility: hidden; font-family: &quot;Helvetica Neue&quot;, sans-serif; font-size: 12px; font-weight: 200;" fill="rgb(50, 49, 63)" stroke="none" stroke-width="1px">0.84</text><text x="0" y="54.769230769230774" dx="0em" dy="0.3em" style="text-anchor: end; visibility: inherit; font-family: &quot;Helvetica Neue&quot;, sans-serif; font-size: 12px; font-weight: 200;" fill="rgb(50, 49, 63)" stroke="none" stroke-width="1px">0.86</text><text x="0" y="41.07692307692304" dx="0em" dy="0.3em" style="text-anchor: end; visibility: hidden; font-family: &quot;Helvetica Neue&quot;, sans-serif; font-size: 12px; font-weight: 200;" fill="rgb(50, 49, 63)" stroke="none" stroke-width="1px">0.88</text><text x="0" y="27.38461538461536" dx="0em" dy="0.3em" style="text-anchor: end; visibility: inherit; font-family: &quot;Helvetica Neue&quot;, sans-serif; font-size: 12px; font-weight: 200;" fill="rgb(50, 49, 63)" stroke="none" stroke-width="1px">0.9</text><text x="0" y="13.69230769230765" dx="0em" dy="0.3em" style="text-anchor: end; visibility: hidden; font-family: &quot;Helvetica Neue&quot;, sans-serif; font-size: 12px; font-weight: 200;" fill="rgb(50, 49, 63)" stroke="none" stroke-width="1px">0.92</text><text x="0" y="0" dx="0em" dy="0.3em" style="text-anchor: end; visibility: hidden; font-family: &quot;Helvetica Neue&quot;, sans-serif; font-size: 12px; font-weight: 200;" fill="rgb(50, 49, 63)" stroke="none" stroke-width="1px">0.94</text></g><line x1="50" y1="0" x2="50" y2="178" fill="rgb(0, 0, 0)" stroke="rgb(204, 204, 204)" stroke-width="1px"></line></g></g><g transform="translate(50, 0)" clip-path="url(#clip_0)"><clipPath id="clip_0"><rect width="280" height="178"></rect></clipPath><g><g><g><line x1="0" y1="0" x2="0" y2="178" fill="rgb(0, 0, 0)" stroke="rgb(60, 60, 60)" stroke-width="1px" opacity="0.25"></line><line x1="23.333333333333332" y1="0" x2="23.333333333333332" y2="178" fill="rgb(0, 0, 0)" stroke="rgb(60, 60, 60)" stroke-width="1px" opacity="0.25"></line><line x1="46.666666666666664" y1="0" x2="46.666666666666664" y2="178" fill="rgb(0, 0, 0)" stroke="rgb(60, 60, 60)" stroke-width="1px" opacity="0.25"></line><line x1="70" y1="0" x2="70" y2="178" fill="rgb(0, 0, 0)" stroke="rgb(60, 60, 60)" stroke-width="1px" opacity="0.25"></line><line x1="93.33333333333333" y1="0" x2="93.33333333333333" y2="178" fill="rgb(0, 0, 0)" stroke="rgb(60, 60, 60)" stroke-width="1px" opacity="0.25"></line><line x1="116.66666666666667" y1="0" x2="116.66666666666667" y2="178" fill="rgb(0, 0, 0)" stroke="rgb(60, 60, 60)" stroke-width="1px" opacity="0.25"></line><line x1="140" y1="0" x2="140" y2="178" fill="rgb(0, 0, 0)" stroke="rgb(60, 60, 60)" stroke-width="1px" opacity="0.25"></line><line x1="163.33333333333334" y1="0" x2="163.33333333333334" y2="178" fill="rgb(0, 0, 0)" stroke="rgb(60, 60, 60)" stroke-width="1px" opacity="0.25"></line><line x1="186.66666666666666" y1="0" x2="186.66666666666666" y2="178" fill="rgb(0, 0, 0)" stroke="rgb(60, 60, 60)" stroke-width="1px" opacity="0.25"></line><line x1="210" y1="0" x2="210" y2="178" fill="rgb(0, 0, 0)" stroke="rgb(60, 60, 60)" stroke-width="1px" opacity="0.25"></line><line x1="233.33333333333334" y1="0" x2="233.33333333333334" y2="178" fill="rgb(0, 0, 0)" stroke="rgb(60, 60, 60)" stroke-width="1px" opacity="0.25"></line><line x1="256.66666666666663" y1="0" x2="256.66666666666663" y2="178" fill="rgb(0, 0, 0)" stroke="rgb(60, 60, 60)" stroke-width="1px" opacity="0.25"></line><line x1="280" y1="0" x2="280" y2="178" fill="rgb(0, 0, 0)" stroke="rgb(60, 60, 60)" stroke-width="1px" opacity="0.25"></line></g><g><line x1="0" y1="178" x2="280" y2="178" fill="rgb(0, 0, 0)" stroke="rgb(60, 60, 60)" stroke-width="1px" opacity="0.25"></line><line x1="0" y1="164.30769230769238" x2="280" y2="164.30769230769238" fill="rgb(0, 0, 0)" stroke="rgb(60, 60, 60)" stroke-width="1px" opacity="0.25"></line><line x1="0" y1="150.61538461538467" x2="280" y2="150.61538461538467" fill="rgb(0, 0, 0)" stroke="rgb(60, 60, 60)" stroke-width="1px" opacity="0.25"></line><line x1="0" y1="136.92307692307696" x2="280" y2="136.92307692307696" fill="rgb(0, 0, 0)" stroke="rgb(60, 60, 60)" stroke-width="1px" opacity="0.25"></line><line x1="0" y1="123.23076923076924" x2="280" y2="123.23076923076924" fill="rgb(0, 0, 0)" stroke="rgb(60, 60, 60)" stroke-width="1px" opacity="0.25"></line><line x1="0" y1="109.53846153846152" x2="280" y2="109.53846153846152" fill="rgb(0, 0, 0)" stroke="rgb(60, 60, 60)" stroke-width="1px" opacity="0.25"></line><line x1="0" y1="95.84615384615383" x2="280" y2="95.84615384615383" fill="rgb(0, 0, 0)" stroke="rgb(60, 60, 60)" stroke-width="1px" opacity="0.25"></line><line x1="0" y1="82.15384615384617" x2="280" y2="82.15384615384617" fill="rgb(0, 0, 0)" stroke="rgb(60, 60, 60)" stroke-width="1px" opacity="0.25"></line><line x1="0" y1="68.46153846153848" x2="280" y2="68.46153846153848" fill="rgb(0, 0, 0)" stroke="rgb(60, 60, 60)" stroke-width="1px" opacity="0.25"></line><line x1="0" y1="54.769230769230774" x2="280" y2="54.769230769230774" fill="rgb(0, 0, 0)" stroke="rgb(60, 60, 60)" stroke-width="1px" opacity="0.25"></line><line x1="0" y1="41.07692307692304" x2="280" y2="41.07692307692304" fill="rgb(0, 0, 0)" stroke="rgb(60, 60, 60)" stroke-width="1px" opacity="0.25"></line><line x1="0" y1="27.38461538461536" x2="280" y2="27.38461538461536" fill="rgb(0, 0, 0)" stroke="rgb(60, 60, 60)" stroke-width="1px" opacity="0.25"></line><line x1="0" y1="13.69230769230765" x2="280" y2="13.69230769230765" fill="rgb(0, 0, 0)" stroke="rgb(60, 60, 60)" stroke-width="1px" opacity="0.25"></line><line x1="0" y1="0" x2="280" y2="0" fill="rgb(0, 0, 0)" stroke="rgb(60, 60, 60)" stroke-width="1px" opacity="0.25"></line></g></g></g><g><g><line x1="0" y1="643.5384615384618" x2="280" y2="643.5384615384618" fill="rgb(0, 0, 0)" stroke="rgb(153, 153, 153)" stroke-width="1.5px"></line></g></g><g><g><line x1="23.333333333333332" y1="0" x2="23.333333333333332" y2="178" fill="rgb(0, 0, 0)" stroke="rgb(153, 153, 153)" stroke-width="1.5px"></line></g></g><g><g><g><g><g><path stroke="rgb(204, 51, 17)" stroke-width="2px" d="M25.666666666666664,186.4116956987411L26.833333333333336,162.53935060353442L28,157.97670389677103L29.166666666666668,148.1119620511414L30.333333333333336,135.2722404754729L31.5,149.22731675580854L32.666666666666664,143.26246722182438L33.833333333333336,146.7866748112994L35,134.79298540941255L36.16666666666667,141.69870844413506L37.333333333333336,138.8016303901091L38.5,123.01140179416632L39.666666666666664,127.59518541135763L40.833333333333336,116.2967212666498L42,109.5196830745636L43.16666666666667,126.52142148312252L44.33333333333333,122.67711190781392L45.5,120.3706760924293L46.666666666666664,111.96501870171534L47.833333333333336,106.92174228131456L49,103.89581891290631L50.166666666666664,109.1020092913478L51.33333333333333,105.20399193338199L52.5,109.88689642289737L53.66666666666667,105.67493098358129L54.833333333333336,110.1694546248985L56,105.84446862211865L57.166666666666664,96.22778065408146L58.333333333333336,97.47946599922678L59.5,91.20878070728268L60.66666666666667,101.48976218999532L61.83333333333333,100.63665473030366L63,107.14648622477958L64.16666666666666,97.00899323711447L65.33333333333333,104.96988926622456L66.5,102.72473099214699L67.66666666666667,101.37763603303603L68.83333333333333,93.54768321616406L70,95.87140737231118L71.16666666666666,97.26564186480658L72.33333333333334,105.1238783958416L73.5,109.83882031301053L74.66666666666667,105.64608962811944L75.83333333333333,110.15214705184151L77,105.83408567169225L78.16666666666667,103.24324884370613L79.33333333333333,101.68874674695167L80.5,100.75604548891238L81.66666666666667,100.1964247340937L82.83333333333333,106.8823481151644L84,110.89390214379435L85.16666666666666,99.25744289307359L86.33333333333334,106.3189590105373L87.5,103.53417284707028L88.66666666666666,101.8633011489908L89.83333333333334,100.86077813014329L91,93.2375684848945L92.16666666666667,95.68533853168583L93.33333333333333,97.15400055976046L94.5,91.01350194266534L95.66666666666667,87.32920277240834L96.83333333333333,92.14031910419394L98,88.00529306932548L99.16666666666667,92.54597328234424L100.33333333333333,102.29207724409537L101.5,108.13973962114598L102.66666666666666,97.60494537949678L103.83333333333334,98.30576466844695L105,91.7045604078773L106.16666666666666,87.74383785153556L107.33333333333334,92.38910015167025L108.5,88.15456169781139L109.66666666666667,85.61383862549596L110.83333333333333,91.11110061604654L112,94.40945781037692L113.16666666666667,89.36677629303534L114.33333333333333,86.34116738263036L115.5,84.52580203638739L116.66666666666667,90.45827866258139L117.83333333333333,94.01776463829779L119,89.13176038978784L120.16666666666666,86.20015784068185L121.33333333333334,77.41950047727853L122.5,72.15110605923657L123.66666666666666,76.0117652423511L124.83333333333334,71.30646491828008L126,61.46158888989767L127.16666666666667,76.61975077468755L128.33333333333331,85.71464790556146L129.5,84.14989035014607L130.66666666666666,83.21103581689681L131.83333333333334,82.64772309694726L133,103.37482296679684L134.16666666666669,94.74599538688724L135.33333333333334,89.56869883894156L136.5,86.46232091017413L137.66666666666666,77.57679831897383L138.83333333333334,65.22378893031393L140,71.85537496499757L141.16666666666666,68.8126307518679L142.33333333333331,59.965288390050375L143.5,68.70027464083937L144.66666666666669,73.94126639131278L145.83333333333334,84.10755727553664L147,83.18563597213115L148.16666666666666,75.61078735614814L149.33333333333334,78.08757402049804L150.5,65.53025435122844L151.66666666666666,79.060950051486L152.83333333333331,66.11427996982121L154,79.41136542264165L155.16666666666669,66.32452919251458L156.33333333333334,86.55921079019745L157.5,91.67832391486743L158.66666666666666,101.77148762360915L159.83333333333331,93.7839941809747L161,81.96980228145424L162.16666666666669,81.90298297568175L163.33333333333334,74.84119555827846L164.5,84.64751477571599L165.66666666666666,90.53130630617851L166.83333333333334,94.06158122445605L168,96.17974617542262L169.16666666666666,90.42894931206271L170.33333333333331,86.97847119404678L171.5,84.90818432323721L172.66666666666669,83.66601220075147L173.83333333333334,89.94240476119982L175,93.70824029746882L176.16666666666666,102.98943745316997L177.33333333333331,94.51476407871118L178.5,96.45165588797565L179.66666666666669,90.59209513959453L180.83333333333334,87.07635869056585L182,84.96691682114866L183.16666666666666,90.72294753343813L184.33333333333334,87.15487012687207L185.5,85.01402368293238L186.66666666666666,90.75121165050835L187.83333333333331,80.15013276317438L189,80.8111812647138L190.16666666666669,88.22950619957723L191.33333333333334,99.70219699443507L192.5,113.60750730528956L193.66666666666666,93.86391015604312L194.83333333333331,89.039447700435L196,86.14477022707015L197.16666666666669,84.40796374305123L198.33333333333334,125.49605485627859L199.5,108.01873452057632L200.66666666666666,104.55403815309475L201.83333333333334,88.43182866472627L203,78.75850297170517L204.16666666666666,79.97620338983228L205.33333333333331,80.70682364070856L206.5,74.12349995729454L207.66666666666669,77.19520158118594L208.83333333333334,86.0599183894605L210,77.3353568065457L211.16666666666666,79.12231569073654L212.33333333333331,73.17279518731131L213.5,76.62477871919597L214.66666666666669,71.67427300438698L215.83333333333334,75.72566540944135L217,78.156500852474L218.16666666666666,72.59330628435377L219.33333333333334,55.21199787560212L220.5,65.84830033217048L221.66666666666666,72.23008180611149L222.83333333333331,76.05915069047607L224,85.3782878550346L225.16666666666669,90.9697701537697L226.33333333333334,94.32465953301079L227.5,96.33759316055544L228.66666666666666,90.52365750314243L229.83333333333331,94.05699194263438L231,89.15529677238976L232.16666666666669,93.23597550418282L233.33333333333334,88.66268690931885L234.5,85.91871375240046L235.66666666666666,84.27232985824944L236.83333333333334,76.26280368781909L238,71.45708798556086L239.16666666666666,68.57365856420594L240.33333333333331,66.84360091139297L241.5,72.82726215364497L242.66666666666669,69.39576306505639L243.83333333333334,74.35855944584303L245,84.35793310825477L246.16666666666666,83.33586147176202L247.33333333333331,75.70092265592659L248.5,78.14165520036516L249.66666666666669,72.58439889308849L250.83333333333334,76.27174094266226L252,78.48414617240653L253.16666666666666,86.83328514419286L254.33333333333334,84.82107269332488L255.5,69.57035355492452" style="fill: none;" fill="none"></path></g><g><path stroke="rgb(0, 119, 187)" stroke-width="2px" d="M32.666666666666664,185.11627815631405L33.833333333333336,170.2169283410039L35,155.91063598845946L36.16666666666667,158.19345691959177L37.333333333333336,150.54008899649477L38.5,149.56053789890464L39.666666666666664,141.76342588512009L40.833333333333336,119.06623073796374L42,123.47125329671445L43.16666666666667,118.90657473297267L44.33333333333333,126.97844738160876L45.5,126.41620454267985L46.666666666666664,104.45896538163836L47.833333333333336,94.88820270900742L49,92.7490956278968L50.166666666666664,82.45750405908639L51.33333333333333,101.50532581972696L52.5,102.12424144746034L53.66666666666667,100.69397574391444L54.833333333333336,99.83581725865996L56,88.5112105134728L57.166666666666664,87.12130433591352L58.333333333333336,79.08087698286451L59.5,76.05825028006018L60.66666666666667,72.44304544323657L61.83333333333333,79.28201835755405L63,72.57569378651411L64.16666666666666,63.147028735222904L65.33333333333333,70.10116673620388L66.5,79.6785198560206L67.66666666666667,76.4168362372478L68.83333333333333,63.65010172528274L70,55.990061029025895L71.16666666666666,64.0053735127405L72.33333333333334,63.40970699474033L73.5,61.25067820066994L74.66666666666667,56.35201948045844L75.83333333333333,67.82579002409243L77,74.71005234981489L78.16666666666667,64.42764397022374L79.33333333333333,69.06792327366456L80.5,75.45533229935211L81.66666666666667,57.66834537532526L82.83333333333333,57.80586122939529L84,56.08675818126815L85.16666666666666,62.26177923966945L86.33333333333334,62.363550431069854L87.5,46.21003481080206L88.66666666666666,54.53411633431686L89.83333333333334,50.52046980058957L91,46.310669319787706L92.16666666666667,49.189643035506805L93.33333333333333,59.92512271277211L94.5,53.75507362766315L95.66666666666667,50.053044176597794L96.83333333333333,49.63343906652432L98,38.57196799208083L99.16666666666667,44.54642223888251L100.33333333333333,58.940802795363L101.5,58.56933568141747L102.66666666666666,45.73511852158245L103.83333333333334,47.04268367351506L105,46.02561020410897L106.16666666666666,34.605641791563244L107.33333333333334,43.96823907913759L108.5,53.18903889531629L109.66666666666667,53.31666478082383L110.83333333333333,55.19485287269397L112,50.91691172361641L113.16666666666667,37.54042270326772L114.33333333333333,49.332349069794304L115.5,43.79616799824251L116.66666666666667,51.284183686213495L117.83333333333333,44.967268768094016L119,41.17711981722235L120.16666666666666,42.50627189033344L121.33333333333334,36.09728024693197L122.5,41.259980708724896L123.66666666666666,35.34950553796688L124.83333333333334,46.21618621004822L126,47.33132428659454L127.16666666666667,44.39718201139107L128.33333333333331,35.43021375900088L129.5,26.446791363932817L130.66666666666666,22.858350487457585L131.83333333333334,44.12634718394236L133,42.474195749799776L134.16666666666669,59.49909578498166L135.33333333333334,51.69784491042333L136.5,54.22356095045366L137.66666666666666,53.93737801390621L138.83333333333334,48.36081424777805L140,48.61810110923241L141.16666666666666,43.367619221905386L142.33333333333331,42.018958972577565L143.5,37.606521379346844L144.66666666666669,42.16552538817379L145.83333333333334,35.892832345636236L147,30.327603959548043L148.16666666666666,25.186838044826715L149.33333333333334,22.102378495993946L150.5,31.06142709759638L151.66666666666666,31.03200225435816L152.83333333333331,34.617588792049276L154,40.37216583579519L155.16666666666669,38.42005805784305L156.33333333333334,39.050422274140175L157.5,25.015675029382322L158.66666666666666,23.801309569795677L159.83333333333331,23.072690294043696L161,31.64361417642621L162.16666666666669,34.98455594529011L163.33333333333334,29.782638119340334L164.5,23.058245980136405L165.66666666666666,31.634947588081758L166.83333333333334,33.17772710921503L168,30.50015337826096L169.16666666666666,30.695238022756854L170.33333333333331,41.62199681785381L171.5,51.78129353854598L172.66666666666669,56.07525901039568L173.83333333333334,53.24676796680312L175,53.35130222371593L176.16666666666666,44.4059273300299L177.33333333333331,35.43546095018422L178.5,28.251552239208365L179.66666666666669,45.56065567442715L180.83333333333334,30.723443952622887L182,36.234066371573704L183.16666666666666,43.143681266578255L184.33333333333334,41.88459619938135L185.5,46.53399916326285L186.66666666666666,42.117158054323625L187.83333333333331,43.07029483259416L189,43.642176899556546L190.16666666666669,49.390160143933656L191.33333333333334,56.44219153419394L192.5,66.0782643725497L193.66666666666666,61.05020006716386L194.83333333333331,61.636602927566344L196,58.385203200173834L197.16666666666669,61.83921736793798L198.33333333333334,71.1181087558646L199.5,69.47896070135248L200.66666666666666,82.90842132067863L201.83333333333334,72.94990679660684L203,56.16509007376443L204.16666666666666,35.284475709156794L205.33333333333331,28.160961094592068L206.5,23.886852325853056L207.66666666666669,35.73535283914589L208.83333333333334,32.034728816219484L210,29.814354402463607L211.16666666666666,35.68861264147813L212.33333333333331,24.800218132853445L213.5,27.27527687551236L214.66666666666669,25.157070677473683L215.83333333333334,41.90233785431792L217,46.544644156224734L218.16666666666666,43.92517393316916L219.33333333333334,36.94862147263345L220.5,30.96107743574632L221.66666666666666,48.987983352915506L222.83333333333331,58.00251434265142L224,48.99826716195679L225.16666666666669,34.58762340570635L226.33333333333334,29.544478595590107L227.5,26.518591709520337L228.66666666666666,26.504672138444135L229.83333333333331,21.09146639159877L231,26.851638391325196L232.16666666666669,44.720707365697194L233.33333333333334,51.83890730668632L234.5,39.89524893617809L235.66666666666666,32.72905391387309L236.83333333333334,32.03257834412412L238,22.606597554441095L239.16666666666666,27.760717089030578L240.33333333333331,43.46452570125206L241.5,43.878715420751206L242.66666666666669,40.523987808816656L243.83333333333334,34.90790979802196L245,27.935021547911106L246.16666666666666,18.346434593644858L247.33333333333331,27.006248195621254L248.5,24.995653469539064L249.66666666666669,20.1860551902557L250.83333333333334,24.506779109953783L252,39.71055035324039L253.16666666666666,29.01499332047652L254.33333333333334,24.399271661383864L255.5,16.224984661728485" style="fill: none;" fill="none"></path></g></g></g></g><g opacity="0.2"><g><g><g><path stroke="rgb(204, 51, 17)" stroke-width="2px" d="M23.333333333333332,310.007889023194L24.5,169.57395194127014L25.666666666666664,152.01971235642068L26.833333333333336,134.46547277157126L28,152.01971235642068L29.166666666666668,134.46547277157126L30.333333333333336,116.9112331867218L31.5,169.57395194127014L32.666666666666664,134.46547277157126L33.833333333333336,152.01971235642068L35,116.9112331867218L36.16666666666667,152.01971235642068L37.333333333333336,134.46547277157126L38.5,99.35699360187238L39.666666666666664,134.46547277157126L40.833333333333336,99.35699360187238L42,99.35699360187238L43.16666666666667,152.01971235642068L44.33333333333333,116.9112331867218L45.5,116.9112331867218L46.666666666666664,99.35699360187238L47.833333333333336,99.35699360187238L49,99.35699360187238L50.166666666666664,116.9112331867218L51.33333333333333,99.35699360187238L52.5,116.9112331867218L53.66666666666667,99.35699360187238L54.833333333333336,116.9112331867218L56,99.35699360187238L57.166666666666664,81.80275401702292L58.333333333333336,99.35699360187238L59.5,81.80275401702292L60.66666666666667,116.9112331867218L61.83333333333333,99.35699360187238L63,116.9112331867218L64.16666666666666,81.80275401702292L65.33333333333333,116.9112331867218L66.5,99.35699360187238L67.66666666666667,99.35699360187238L68.83333333333333,81.80275401702292L70,99.35699360187238L71.16666666666666,99.35699360187238L72.33333333333334,116.9112331867218L73.5,116.9112331867218L74.66666666666667,99.35699360187238L75.83333333333333,116.9112331867218L77,99.35699360187238L78.16666666666667,99.35699360187238L79.33333333333333,99.35699360187238L80.5,99.35699360187238L81.66666666666667,99.35699360187238L82.83333333333333,116.9112331867218L84,116.9112331867218L85.16666666666666,81.80275401702292L86.33333333333334,116.9112331867218L87.5,99.35699360187238L88.66666666666666,99.35699360187238L89.83333333333334,99.35699360187238L91,81.80275401702292L92.16666666666667,99.35699360187238L93.33333333333333,99.35699360187238L94.5,81.80275401702292L95.66666666666667,81.80275401702292L96.83333333333333,99.35699360187238L98,81.80275401702292L99.16666666666667,99.35699360187238L100.33333333333333,116.9112331867218L101.5,116.9112331867218L102.66666666666666,81.80275401702292L103.83333333333334,99.35699360187238L105,81.80275401702292L106.16666666666666,81.80275401702292L107.33333333333334,99.35699360187238L108.5,81.80275401702292L109.66666666666667,81.80275401702292L110.83333333333333,99.35699360187238L112,99.35699360187238L113.16666666666667,81.80275401702292L114.33333333333333,81.80275401702292L115.5,81.80275401702292L116.66666666666667,99.35699360187238L117.83333333333333,99.35699360187238L119,81.80275401702292L120.16666666666666,81.80275401702292L121.33333333333334,64.2485144321735L122.5,64.2485144321735L123.66666666666666,81.80275401702292L124.83333333333334,64.2485144321735L126,46.69427484732404L127.16666666666667,99.35699360187238L128.33333333333331,99.35699360187238L129.5,81.80275401702292L130.66666666666666,81.80275401702292L131.83333333333334,81.80275401702292L133,134.46547277157126L134.16666666666669,81.80275401702292L135.33333333333334,81.80275401702292L136.5,81.80275401702292L137.66666666666666,64.2485144321735L138.83333333333334,46.69427484732404L140,81.80275401702292L141.16666666666666,64.2485144321735L142.33333333333331,46.69427484732404L143.5,81.80275401702292L144.66666666666669,81.80275401702292L145.83333333333334,99.35699360187238L147,81.80275401702292L148.16666666666666,64.2485144321735L149.33333333333334,81.80275401702292L150.5,46.69427484732404L151.66666666666666,99.35699360187238L152.83333333333331,46.69427484732404L154,99.35699360187238L155.16666666666669,46.69427484732404L156.33333333333334,116.9112331867218L157.5,99.35699360187238L158.66666666666666,116.9112331867218L159.83333333333331,81.80275401702292L161,64.2485144321735L162.16666666666669,81.80275401702292L163.33333333333334,64.2485144321735L164.5,99.35699360187238L165.66666666666666,99.35699360187238L166.83333333333334,99.35699360187238L168,99.35699360187238L169.16666666666666,81.80275401702292L170.33333333333331,81.80275401702292L171.5,81.80275401702292L172.66666666666669,81.80275401702292L173.83333333333334,99.35699360187238L175,99.35699360187238L176.16666666666666,116.9112331867218L177.33333333333331,81.80275401702292L178.5,99.35699360187238L179.66666666666669,81.80275401702292L180.83333333333334,81.80275401702292L182,81.80275401702292L183.16666666666666,99.35699360187238L184.33333333333334,81.80275401702292L185.5,81.80275401702292L186.66666666666666,99.35699360187238L187.83333333333331,64.2485144321735L189,81.80275401702292L190.16666666666669,99.35699360187238L191.33333333333334,116.9112331867218L192.5,134.46547277157126L193.66666666666666,64.2485144321735L194.83333333333331,81.80275401702292L196,81.80275401702292L197.16666666666669,81.80275401702292L198.33333333333334,187.12819152611956L199.5,81.80275401702292L200.66666666666666,99.35699360187238L201.83333333333334,64.2485144321735L203,64.2485144321735L204.16666666666666,81.80275401702292L205.33333333333331,81.80275401702292L206.5,64.2485144321735L207.66666666666669,81.80275401702292L208.83333333333334,99.35699360187238L210,64.2485144321735L211.16666666666666,81.80275401702292L212.33333333333331,64.2485144321735L213.5,81.80275401702292L214.66666666666669,64.2485144321735L215.83333333333334,81.80275401702292L217,81.80275401702292L218.16666666666666,64.2485144321735L219.33333333333334,29.140035262474612L220.5,81.80275401702292L221.66666666666666,81.80275401702292L222.83333333333331,81.80275401702292L224,99.35699360187238L225.16666666666669,99.35699360187238L226.33333333333334,99.35699360187238L227.5,99.35699360187238L228.66666666666666,81.80275401702292L229.83333333333331,99.35699360187238L231,81.80275401702292L232.16666666666669,99.35699360187238L233.33333333333334,81.80275401702292L234.5,81.80275401702292L235.66666666666666,81.80275401702292L236.83333333333334,64.2485144321735L238,64.2485144321735L239.16666666666666,64.2485144321735L240.33333333333331,64.2485144321735L241.5,81.80275401702292L242.66666666666669,64.2485144321735L243.83333333333334,81.80275401702292L245,99.35699360187238L246.16666666666666,81.80275401702292L247.33333333333331,64.2485144321735L248.5,81.80275401702292L249.66666666666669,64.2485144321735L250.83333333333334,81.80275401702292L252,81.80275401702292L253.16666666666666,99.35699360187238L254.33333333333334,81.80275401702292L255.5,46.69427484732404" style="fill: none;" fill="none"></path></g><g><path stroke="rgb(0, 119, 187)" stroke-width="2px" d="M30.333333333333336,197.63763893567602L31.5,134.58095447833722L32.666666666666664,193.1336075342619L33.833333333333336,148.09313029509326L35,134.58095447833722L36.16666666666667,161.6052653055925L37.333333333333336,139.08502668600818L38.5,148.09313029509326L39.666666666666664,130.0769230769231L40.833333333333336,85.03644583775446L42,130.0769230769231L43.16666666666667,112.06071585875293L44.33333333333333,139.08502668600818L45.5,125.57289167550894L46.666666666666664,71.52431082725525L47.833333333333336,80.53237363008353L49,89.54047723916861L50.166666666666664,67.02023861958429L51.33333333333333,130.0769230769231L52.5,103.05261224966783L53.66666666666667,98.54858084825369L54.833333333333336,98.54858084825369L56,71.52431082725525L57.166666666666664,85.03644583775446L58.333333333333336,67.02023861958429L59.5,71.52431082725525L60.66666666666667,67.02023861958429L61.83333333333333,89.54047723916861L63,62.51620721817015L64.16666666666666,49.004031401414125L65.33333333333333,80.53237363008353L66.5,94.04454944683955L67.66666666666667,71.52431082725525L68.83333333333333,44.49999999999997L70,44.49999999999997L71.16666666666666,76.02834222866937L72.33333333333334,62.51620721817015L73.5,58.01213501049921L74.66666666666667,49.004031401414125L75.83333333333333,85.03644583775446L77,85.03644583775446L78.16666666666667,49.004031401414125L79.33333333333333,76.02834222866937L80.5,85.03644583775446L81.66666666666667,30.987864989500736L82.83333333333333,58.01213501049921L84,53.50810360908507L85.16666666666666,71.52431082725525L86.33333333333334,62.51620721817015L87.5,21.979761380415653L88.66666666666666,67.02023861958429L89.83333333333334,44.49999999999997L91,39.99596859858582L92.16666666666667,53.50810360908507L93.33333333333333,76.02834222866937L94.5,44.49999999999997L95.66666666666667,44.49999999999997L96.83333333333333,49.004031401414125L98,21.979761380415653L99.16666666666667,53.50810360908507L100.33333333333333,80.53237363008353L101.5,58.01213501049921L102.66666666666666,26.483792781829806L103.83333333333334,49.004031401414125L105,44.49999999999997L106.16666666666666,17.475689172744723L107.33333333333334,58.01213501049921L108.5,67.02023861958429L109.66666666666667,53.50810360908507L110.83333333333333,58.01213501049921L112,44.49999999999997L113.16666666666667,17.475689172744723L114.33333333333333,67.02023861958429L115.5,35.49189639091489L116.66666666666667,62.51620721817015L117.83333333333333,35.49189639091489L119,35.49189639091489L120.16666666666666,44.49999999999997L121.33333333333334,26.483792781829806L122.5,49.004031401414125L123.66666666666666,26.483792781829806L124.83333333333334,62.51620721817015L126,49.004031401414125L127.16666666666667,39.99596859858582L128.33333333333331,21.979761380415653L129.5,12.97165777133057L130.66666666666666,17.475689172744723L131.83333333333334,76.02834222866937L133,39.99596859858582L134.16666666666669,85.03644583775446L135.33333333333334,39.99596859858582L136.5,58.01213501049921L137.66666666666666,53.50810360908507L138.83333333333334,39.99596859858582L140,49.004031401414125L141.16666666666666,35.49189639091489L142.33333333333331,39.99596859858582L143.5,30.987864989500736L144.66666666666669,49.004031401414125L145.83333333333334,26.483792781829806L147,21.979761380415653L148.16666666666666,17.475689172744723L149.33333333333334,17.475689172744723L150.5,44.49999999999997L151.66666666666666,30.987864989500736L152.83333333333331,39.99596859858582L154,49.004031401414125L155.16666666666669,35.49189639091489L156.33333333333334,39.99596859858582L157.5,3.9635541622454866L158.66666666666666,21.979761380415653L159.83333333333331,21.979761380415653L161,44.49999999999997L162.16666666666669,39.99596859858582L163.33333333333334,21.979761380415653L164.5,12.97165777133057L165.66666666666666,44.49999999999997L166.83333333333334,35.49189639091489L168,26.483792781829806L169.16666666666666,30.987864989500736L170.33333333333331,58.01213501049921L171.5,67.02023861958429L172.66666666666669,62.51620721817015L173.83333333333334,49.004031401414125L175,53.50810360908507L176.16666666666666,30.987864989500736L177.33333333333331,21.979761380415653L178.5,17.475689172744723L179.66666666666669,71.52431082725525L180.83333333333334,8.467626369916445L182,44.49999999999997L183.16666666666666,53.50810360908507L184.33333333333334,39.99596859858582L185.5,53.50810360908507L186.66666666666666,35.49189639091489L187.83333333333331,44.49999999999997L189,44.49999999999997L190.16666666666669,58.01213501049921L191.33333333333334,67.02023861958429L192.5,80.53237363008353L193.66666666666666,53.50810360908507L194.83333333333331,62.51620721817015L196,53.50810360908507L197.16666666666669,67.02023861958429L198.33333333333334,85.03644583775446L199.5,67.02023861958429L200.66666666666666,103.05261224966783L201.83333333333334,58.01213501049921L203,30.987864989500736L204.16666666666666,3.9635541622454866L205.33333333333331,17.475689172744723L206.5,17.475689172744723L207.66666666666669,53.50810360908507L208.83333333333334,26.483792781829806L210,26.483792781829806L211.16666666666666,44.49999999999997L212.33333333333331,8.467626369916445L213.5,30.987864989500736L214.66666666666669,21.979761380415653L215.83333333333334,67.02023861958429L217,53.50810360908507L218.16666666666666,39.99596859858582L219.33333333333334,26.483792781829806L220.5,21.979761380415653L221.66666666666666,76.02834222866937L222.83333333333331,71.52431082725525L224,35.49189639091489L225.16666666666669,12.97165777133057L226.33333333333334,21.979761380415653L227.5,21.979761380415653L228.66666666666666,26.483792781829806L229.83333333333331,12.97165777133057L231,35.49189639091489L232.16666666666669,71.52431082725525L233.33333333333334,62.51620721817015L234.5,21.979761380415653L235.66666666666666,21.979761380415653L236.83333333333334,30.987864989500736L238,8.467626369916445L239.16666666666666,35.49189639091489L240.33333333333331,67.02023861958429L241.5,44.49999999999997L242.66666666666669,35.49189639091489L243.83333333333334,26.483792781829806L245,17.475689172744723L246.16666666666666,3.9635541622454866L247.33333333333331,39.99596859858582L248.5,21.979761380415653L249.66666666666669,12.97165777133057L250.83333333333334,30.987864989500736L252,62.51620721817015L253.16666666666666,12.97165777133057L254.33333333333334,17.475689172744723L255.5,3.9635541622454866" style="fill: none;" fill="none"></path></g></g></g></g></g></g><g transform="translate(50, 178)" clip-path="url(#clip_1)"><clipPath id="clip_1"><rect width="280" height="22"></rect></clipPath><g><g><line x1="0" y1="0" x2="0" y2="5" style="visibility: inherit;" fill="rgb(0, 0, 0)" stroke="rgb(204, 204, 204)" stroke-width="1px"></line><line x1="23.333333333333332" y1="0" x2="23.333333333333332" y2="5" style="visibility: inherit;" fill="rgb(0, 0, 0)" stroke="rgb(204, 204, 204)" stroke-width="1px"></line><line x1="46.666666666666664" y1="0" x2="46.666666666666664" y2="5" style="visibility: inherit;" fill="rgb(0, 0, 0)" stroke="rgb(204, 204, 204)" stroke-width="1px"></line><line x1="70" y1="0" x2="70" y2="5" style="visibility: inherit;" fill="rgb(0, 0, 0)" stroke="rgb(204, 204, 204)" stroke-width="1px"></line><line x1="93.33333333333333" y1="0" x2="93.33333333333333" y2="5" style="visibility: inherit;" fill="rgb(0, 0, 0)" stroke="rgb(204, 204, 204)" stroke-width="1px"></line><line x1="116.66666666666667" y1="0" x2="116.66666666666667" y2="5" style="visibility: inherit;" fill="rgb(0, 0, 0)" stroke="rgb(204, 204, 204)" stroke-width="1px"></line><line x1="140" y1="0" x2="140" y2="5" style="visibility: inherit;" fill="rgb(0, 0, 0)" stroke="rgb(204, 204, 204)" stroke-width="1px"></line><line x1="163.33333333333334" y1="0" x2="163.33333333333334" y2="5" style="visibility: inherit;" fill="rgb(0, 0, 0)" stroke="rgb(204, 204, 204)" stroke-width="1px"></line><line x1="186.66666666666666" y1="0" x2="186.66666666666666" y2="5" style="visibility: inherit;" fill="rgb(0, 0, 0)" stroke="rgb(204, 204, 204)" stroke-width="1px"></line><line x1="210" y1="0" x2="210" y2="5" style="visibility: inherit;" fill="rgb(0, 0, 0)" stroke="rgb(204, 204, 204)" stroke-width="1px"></line><line x1="233.33333333333334" y1="0" x2="233.33333333333334" y2="5" style="visibility: inherit;" fill="rgb(0, 0, 0)" stroke="rgb(204, 204, 204)" stroke-width="1px"></line><line x1="256.66666666666663" y1="0" x2="256.66666666666663" y2="5" style="visibility: inherit;" fill="rgb(0, 0, 0)" stroke="rgb(204, 204, 204)" stroke-width="1px"></line><line x1="280" y1="0" x2="280" y2="5" style="visibility: inherit;" fill="rgb(0, 0, 0)" stroke="rgb(204, 204, 204)" stroke-width="1px"></line></g><g transform="translate(0, 8)"><text x="0" y="0" dx="0em" dy="0.95em" style="text-anchor: middle; visibility: hidden; font-family: &quot;Helvetica Neue&quot;, sans-serif; font-size: 12px; font-weight: 200;" fill="rgb(50, 49, 63)" stroke="none" stroke-width="1px">-20</text><text x="23.333333333333332" y="0" dx="0em" dy="0.95em" style="text-anchor: middle; visibility: inherit; font-family: &quot;Helvetica Neue&quot;, sans-serif; font-size: 12px; font-weight: 200;" fill="rgb(50, 49, 63)" stroke="none" stroke-width="1px">0</text><text x="46.666666666666664" y="0" dx="0em" dy="0.95em" style="text-anchor: middle; visibility: hidden; font-family: &quot;Helvetica Neue&quot;, sans-serif; font-size: 12px; font-weight: 200;" fill="rgb(50, 49, 63)" stroke="none" stroke-width="1px">20</text><text x="70" y="0" dx="0em" dy="0.95em" style="text-anchor: middle; visibility: inherit; font-family: &quot;Helvetica Neue&quot;, sans-serif; font-size: 12px; font-weight: 200;" fill="rgb(50, 49, 63)" stroke="none" stroke-width="1px">40</text><text x="93.33333333333333" y="0" dx="0em" dy="0.95em" style="text-anchor: middle; visibility: hidden; font-family: &quot;Helvetica Neue&quot;, sans-serif; font-size: 12px; font-weight: 200;" fill="rgb(50, 49, 63)" stroke="none" stroke-width="1px">60</text><text x="116.66666666666667" y="0" dx="0em" dy="0.95em" style="text-anchor: middle; visibility: inherit; font-family: &quot;Helvetica Neue&quot;, sans-serif; font-size: 12px; font-weight: 200;" fill="rgb(50, 49, 63)" stroke="none" stroke-width="1px">80</text><text x="140" y="0" dx="0em" dy="0.95em" style="text-anchor: middle; visibility: hidden; font-family: &quot;Helvetica Neue&quot;, sans-serif; font-size: 12px; font-weight: 200;" fill="rgb(50, 49, 63)" stroke="none" stroke-width="1px">100</text><text x="163.33333333333334" y="0" dx="0em" dy="0.95em" style="text-anchor: middle; visibility: inherit; font-family: &quot;Helvetica Neue&quot;, sans-serif; font-size: 12px; font-weight: 200;" fill="rgb(50, 49, 63)" stroke="none" stroke-width="1px">120</text><text x="186.66666666666666" y="0" dx="0em" dy="0.95em" style="text-anchor: middle; visibility: hidden; font-family: &quot;Helvetica Neue&quot;, sans-serif; font-size: 12px; font-weight: 200;" fill="rgb(50, 49, 63)" stroke="none" stroke-width="1px">140</text><text x="210" y="0" dx="0em" dy="0.95em" style="text-anchor: middle; visibility: inherit; font-family: &quot;Helvetica Neue&quot;, sans-serif; font-size: 12px; font-weight: 200;" fill="rgb(50, 49, 63)" stroke="none" stroke-width="1px">160</text><text x="233.33333333333334" y="0" dx="0em" dy="0.95em" style="text-anchor: middle; visibility: hidden; font-family: &quot;Helvetica Neue&quot;, sans-serif; font-size: 12px; font-weight: 200;" fill="rgb(50, 49, 63)" stroke="none" stroke-width="1px">180</text><text x="256.66666666666663" y="0" dx="0em" dy="0.95em" style="text-anchor: middle; visibility: inherit; font-family: &quot;Helvetica Neue&quot;, sans-serif; font-size: 12px; font-weight: 200;" fill="rgb(50, 49, 63)" stroke="none" stroke-width="1px">200</text><text x="280" y="0" dx="0em" dy="0.95em" style="text-anchor: middle; visibility: hidden; font-family: &quot;Helvetica Neue&quot;, sans-serif; font-size: 12px; font-weight: 200;" fill="rgb(50, 49, 63)" stroke="none" stroke-width="1px">220</text></g><line x1="0" y1="0" x2="280" y2="0" fill="rgb(0, 0, 0)" stroke="rgb(204, 204, 204)" stroke-width="1px"></line></g></g></g></g></svg>