<svg viewBox="0 0 330 200" xmlns="http://www.w3.org/2000/svg"><g><g><g><g><g><line x1="50" y1="178" x2="45" y2="178" style="visibility: inherit;" fill="rgb(0, 0, 0)" stroke="rgb(204, 204, 204)" stroke-width="1px"></line><line x1="50" y1="160.2" x2="45" y2="160.2" style="visibility: inherit;" fill="rgb(0, 0, 0)" stroke="rgb(204, 204, 204)" stroke-width="1px"></line><line x1="50" y1="142.4" x2="45" y2="142.4" style="visibility: inherit;" fill="rgb(0, 0, 0)" stroke="rgb(204, 204, 204)" stroke-width="1px"></line><line x1="50" y1="124.6" x2="45" y2="124.6" style="visibility: inherit;" fill="rgb(0, 0, 0)" stroke="rgb(204, 204, 204)" stroke-width="1px"></line><line x1="50" y1="106.8" x2="45" y2="106.8" style="visibility: inherit;" fill="rgb(0, 0, 0)" stroke="rgb(204, 204, 204)" stroke-width="1px"></line><line x1="50" y1="89" x2="45" y2="89" style="visibility: inherit;" fill="rgb(0, 0, 0)" stroke="rgb(204, 204, 204)" stroke-width="1px"></line><line x1="50" y1="71.2" x2="45" y2="71.2" style="visibility: inherit;" fill="rgb(0, 0, 0)" stroke="rgb(204, 204, 204)" stroke-width="1px"></line><line x1="50" y1="53.400000000000006" x2="45" y2="53.400000000000006" style="visibility: inherit;" fill="rgb(0, 0, 0)" stroke="rgb(204, 204, 204)" stroke-width="1px"></line><line x1="50" y1="35.60000000000002" x2="45" y2="35.60000000000002" style="visibility: inherit;" fill="rgb(0, 0, 0)" stroke="rgb(204, 204, 204)" stroke-width="1px"></line><line x1="50" y1="17.799999999999983" x2="45" y2="17.799999999999983" style="visibility: inherit;" fill="rgb(0, 0, 0)" stroke="rgb(204, 204, 204)" stroke-width="1px"></line><line x1="50" y1="0" x2="45" y2="0" style="visibility: inherit;" fill="rgb(0, 0, 0)" stroke="rgb(204, 204, 204)" stroke-width="1px"></line></g><g transform="translate(40, 0)"><text x="0" y="178" dx="0em" dy="0.3em" style="text-anchor: end; visibility: hidden; font-family: &quot;Helvetica Neue&quot;, sans-serif; font-size: 12px; font-weight: 200;" fill="rgb(50, 49, 63)" stroke="none" stroke-width="1px">-0.1</text><text x="0" y="160.2" dx="0em" dy="0.3em" style="text-anchor: end; visibility: inherit; font-family: &quot;Helvetica Neue&quot;, sans-serif; font-size: 12px; font-weight: 200;" fill="rgb(50, 49, 63)" stroke="none" stroke-width="1px">0</text><text x="0" y="142.4" dx="0em" dy="0.3em" style="text-anchor: end; visibility: hidden; font-family: &quot;Helvetica Neue&quot;, sans-serif; font-size: 12px; font-weight: 200;" fill="rgb(50, 49, 63)" stroke="none" stroke-width="1px">0.1</text><text x="0" y="124.6" dx="0em" dy="0.3em" style="text-anchor: end; visibility: inherit; font-family: &quot;Helvetica Neue&quot;, sans-serif; font-size: 12px; font-weight: 200;" fill="rgb(50, 49, 63)" stroke="none" stroke-width="1px">0.2</text><text x="0" y="106.8" dx="0em" dy="0.3em" style="text-anchor: end; visibility: hidden; font-family: &quot;Helvetica Neue&quot;, sans-serif; font-size: 12px; font-weight: 200;" fill="rgb(50, 49, 63)" stroke="none" stroke-width="1px">0.3</text><text x="0" y="89" dx="0em" dy="0.3em" style="text-anchor: end; visibility: inherit; font-family: &quot;Helvetica Neue&quot;, sans-serif; font-size: 12px; font-weight: 200;" fill="rgb(50, 49, 63)" stroke="none" stroke-width="1px">0.4</text><text x="0" y="71.2" dx="0em" dy="0.3em" style="text-anchor: end; visibility: hidden; font-family: &quot;Helvetica Neue&quot;, sans-serif; font-size: 12px; font-weight: 200;" fill="rgb(50, 49, 63)" stroke="none" stroke-width="1px">0.5</text><text x="0" y="53.400000000000006" dx="0em" dy="0.3em" style="text-anchor: end; visibility: inherit; font-family: &quot;Helvetica Neue&quot;, sans-serif; font-size: 12px; font-weight: 200;" fill="rgb(50, 49, 63)" stroke="none" stroke-width="1px">0.6</text><text x="0" y="35.60000000000002" dx="0em" dy="0.3em" style="text-anchor: end; visibility: hidden; font-family: &quot;Helvetica Neue&quot;, sans-serif; font-size: 12px; font-weight: 200;" fill="rgb(50, 49, 63)" stroke="none" stroke-width="1px">0.7</text><text x="0" y="17.799999999999983" dx="0em" dy="0.3em" style="text-anchor: end; visibility: inherit; font-family: &quot;Helvetica Neue&quot;, sans-serif; font-size: 12px; font-weight: 200;" fill="rgb(50, 49, 63)" stroke="none" stroke-width="1px">0.8</text><text x="0" y="0" dx="0em" dy="0.3em" style="text-anchor: end; visibility: hidden; font-family: &quot;Helvetica Neue&quot;, sans-serif; font-size: 12px; font-weight: 200;" fill="rgb(50, 49, 63)" stroke="none" stroke-width="1px">0.9</text></g><line x1="50" y1="0" x2="50" y2="178" fill="rgb(0, 0, 0)" stroke="rgb(204, 204, 204)" stroke-width="1px"></line></g></g><g transform="translate(50, 0)" clip-path="url(#clip_0)"><clipPath id="clip_0"><rect width="280" height="178"></rect></clipPath><g><g><g><line x1="0" y1="0" x2="0" y2="178" fill="rgb(0, 0, 0)" stroke="rgb(60, 60, 60)" stroke-width="1px" opacity="0.25"></line><line x1="23.333333333333332" y1="0" x2="23.333333333333332" y2="178" fill="rgb(0, 0, 0)" stroke="rgb(60, 60, 60)" stroke-width="1px" opacity="0.25"></line><line x1="46.666666666666664" y1="0" x2="46.666666666666664" y2="178" fill="rgb(0, 0, 0)" stroke="rgb(60, 60, 60)" stroke-width="1px" opacity="0.25"></line><line x1="70" y1="0" x2="70" y2="178" fill="rgb(0, 0, 0)" stroke="rgb(60, 60, 60)" stroke-width="1px" opacity="0.25"></line><line x1="93.33333333333333" y1="0" x2="93.33333333333333" y2="178" fill="rgb(0, 0, 0)" stroke="rgb(60, 60, 60)" stroke-width="1px" opacity="0.25"></line><line x1="116.66666666666667" y1="0" x2="116.66666666666667" y2="178" fill="rgb(0, 0, 0)" stroke="rgb(60, 60, 60)" stroke-width="1px" opacity="0.25"></line><line x1="140" y1="0" x2="140" y2="178" fill="rgb(0, 0, 0)" stroke="rgb(60, 60, 60)" stroke-width="1px" opacity="0.25"></line><line x1="163.33333333333334" y1="0" x2="163.33333333333334" y2="178" fill="rgb(0, 0, 0)" stroke="rgb(60, 60, 60)" stroke-width="1px" opacity="0.25"></line><line x1="186.66666666666666" y1="0" x2="186.66666666666666" y2="178" fill="rgb(0, 0, 0)" stroke="rgb(60, 60, 60)" stroke-width="1px" opacity="0.25"></line><line x1="210" y1="0" x2="210" y2="178" fill="rgb(0, 0, 0)" stroke="rgb(60, 60, 60)" stroke-width="1px" opacity="0.25"></line><line x1="233.33333333333334" y1="0" x2="233.33333333333334" y2="178" fill="rgb(0, 0, 0)" stroke="rgb(60, 60, 60)" stroke-width="1px" opacity="0.25"></line><line x1="256.66666666666663" y1="0" x2="256.66666666666663" y2="178" fill="rgb(0, 0, 0)" stroke="rgb(60, 60, 60)" stroke-width="1px" opacity="0.25"></line><line x1="280" y1="0" x2="280" y2="178" fill="rgb(0, 0, 0)" stroke="rgb(60, 60, 60)" stroke-width="1px" opacity="0.25"></line></g><g><line x1="0" y1="178" x2="280" y2="178" fill="rgb(0, 0, 0)" stroke="rgb(60, 60, 60)" stroke-width="1px" opacity="0.25"></line><line x1="0" y1="160.2" x2="280" y2="160.2" fill="rgb(0, 0, 0)" stroke="rgb(60, 60, 60)" stroke-width="1px" opacity="0.25"></line><line x1="0" y1="142.4" x2="280" y2="142.4" fill="rgb(0, 0, 0)" stroke="rgb(60, 60, 60)" stroke-width="1px" opacity="0.25"></line><line x1="0" y1="124.6" x2="280" y2="124.6" fill="rgb(0, 0, 0)" stroke="rgb(60, 60, 60)" stroke-width="1px" opacity="0.25"></line><line x1="0" y1="106.8" x2="280" y2="106.8" fill="rgb(0, 0, 0)" stroke="rgb(60, 60, 60)" stroke-width="1px" opacity="0.25"></line><line x1="0" y1="89" x2="280" y2="89" fill="rgb(0, 0, 0)" stroke="rgb(60, 60, 60)" stroke-width="1px" opacity="0.25"></line><line x1="0" y1="71.2" x2="280" y2="71.2" fill="rgb(0, 0, 0)" stroke="rgb(60, 60, 60)" stroke-width="1px" opacity="0.25"></line><line x1="0" y1="53.400000000000006" x2="280" y2="53.400000000000006" fill="rgb(0, 0, 0)" stroke="rgb(60, 60, 60)" stroke-width="1px" opacity="0.25"></line><line x1="0" y1="35.60000000000002" x2="280" y2="35.60000000000002" fill="rgb(0, 0, 0)" stroke="rgb(60, 60, 60)" stroke-width="1px" opacity="0.25"></line><line x1="0" y1="17.799999999999983" x2="280" y2="17.799999999999983" fill="rgb(0, 0, 0)" stroke="rgb(60, 60, 60)" stroke-width="1px" opacity="0.25"></line><line x1="0" y1="0" x2="280" y2="0" fill="rgb(0, 0, 0)" stroke="rgb(60, 60, 60)" stroke-width="1px" opacity="0.25"></line></g></g></g><g><g><line x1="0" y1="160.2" x2="280" y2="160.2" fill="rgb(0, 0, 0)" stroke="rgb(153, 153, 153)" stroke-width="1.5px"></line></g></g><g><g><line x1="23.333333333333332" y1="0" x2="23.333333333333332" y2="178" fill="rgb(0, 0, 0)" stroke="rgb(153, 153, 153)" stroke-width="1.5px"></line></g></g><g><g><g><g><g><path stroke="rgb(204, 51, 17)" stroke-width="2px" d="M23.333333333333332,-30.83038287162782L24.5,15.543539804220188L25.666666666666664,34.79115795456633L26.833333333333336,42.05971191876074L28,46.652049326929756L29.166666666666668,52.470588867070205L30.333333333333336,56.012815770073985L31.5,56.42124252111712L32.666666666666664,51.01448821209611L33.833333333333336,58.3324070496418L35,50.97407036518722L36.16666666666667,58.64639039174182L37.333333333333336,57.23518651843622L38.5,62.52573531012865L39.666666666666664,66.27185184009018L40.833333333333336,61.05964905953158L42,63.747258753019096L43.16666666666667,62.89518031678266L44.33333333333333,51.59259371513207L45.5,58.6325927306449L46.666666666666664,60.51425847645413L47.833333333333336,62.48475149493608L49,64.40030175462147L50.166666666666664,66.32224861801826L51.33333333333333,65.85570248536756L52.5,65.39350195584265L53.66666666666667,65.6434981082988L54.833333333333336,66.46085005737059L56,64.14979216858524L57.166666666666664,63.87599773436622L58.333333333333336,64.17259911674508L59.5,60.438285201288025L60.66666666666667,61.045393148741084L61.83333333333333,58.456794979125505L63,53.62571548856259L64.16666666666666,55.22486214044237L65.33333333333333,50.707622553779885L66.5,54.72078181438147L67.66666666666667,59.19218611481091L68.83333333333333,50.668801371161706L70,54.59937126469231L71.16666666666666,55.47157609404347L72.33333333333334,56.40294948092901L73.5,57.060553381984946L74.66666666666667,41.00213515481056L75.83333333333333,48.44336762785056L77,51.46247756229694L78.16666666666667,55.601941779628106L79.33333333333333,40.082645418062185L80.5,48.92444880600826L81.66666666666667,48.73510644791068L82.83333333333333,52.97997390484582L84,55.55112676654173L85.16666666666666,47.98972745914807L86.33333333333334,52.03139920818792L87.5,51.788004735636534L88.66666666666666,55.38969139309478L89.83333333333334,52.884283976863L91,55.03743095702556L92.16666666666667,56.959017469326525L93.33333333333333,54.582116843366464L94.5,56.36497266835207L95.66666666666667,56.54830701676747L96.83333333333333,53.14255316452824L98,53.8653361093798L99.16666666666667,46.71101354192484L100.33333333333333,48.514210769121576L101.5,47.25379087721393L102.66666666666666,48.72009448406149L103.83333333333334,48.98775635359914L105,51.3408583104505L106.16666666666666,53.65553506492935L107.33333333333334,47.8329311196766L108.5,52.59233429817927L109.66666666666667,36.04068989508494L110.83333333333333,45.470137451607826L112,46.13434270770483L113.16666666666667,48.7919524702497L114.33333333333333,49.84022864538835L115.5,42.66461285137183L116.66666666666667,44.632711440223716L117.83333333333333,45.352713869749465L119,47.130835065090054L120.16666666666666,40.584494243170866L121.33333333333334,44.93522449618936L122.5,48.64789677313783L123.66666666666666,38.27588933379542L124.83333333333334,44.280835667080225L126,47.13672871996556L127.16666666666667,47.46852617507929L128.33333333333331,48.105854379211394L129.5,38.187152478143275L130.66666666666666,43.0229043847589L131.83333333333334,45.82742173470663L133,14.543034099326206L134.16666666666669,29.021567100754766L135.33333333333334,36.29171183256591L136.5,33.96171717255285L137.66666666666666,40.79188485866172L138.83333333333334,44.25220685437549L140,41.40046607276935L141.16666666666666,46.63405465853893L142.33333333333331,45.395971325473084L143.5,48.43914117541081L144.66666666666669,45.46691576794484L145.83333333333334,43.699999981854546L147,45.988252962669264L148.16666666666666,38.903061755323705L149.33333333333334,42.97519074429533L150.5,37.91047663300907L151.66666666666666,41.10030116802261L152.83333333333331,34.90188428739194L154,35.519289933320806L155.16666666666669,29.291109902070104L156.33333333333334,33.43902186775574L157.5,37.66644497528296L158.66666666666666,40.430865768281336L159.83333333333331,43.762473900131994L161,45.58868859232226L162.16666666666669,47.315231864576106L163.33333333333334,46.96645724351677L164.5,46.491527416559904L165.66666666666666,41.975450364501995L166.83333333333334,38.77181142315371L168,38.17467707720459L169.16666666666666,36.297747225326674L170.33333333333331,34.106128155447465L171.5,34.49385751918402L172.66666666666669,24.617574849340002L173.83333333333334,25.607639531262322L175,8.144420354347005L176.16666666666666,12.299116335380404L177.33333333333331,6.814712578098977L178.5,16.95885821702538L179.66666666666669,22.175441082253798L180.83333333333334,28.47839490409777L182,31.973066452956715L183.16666666666666,31.375648028741182L184.33333333333334,34.07701333468552L185.5,29.794220286043867L186.66666666666666,31.973816564936868L187.83333333333331,26.999117791211262L189,32.347498314115796L190.16666666666669,33.56598664792381L191.33333333333334,6.933579053115864L192.5,12.59408944465639L193.66666666666666,13.328593101608277L194.83333333333331,25.4195906487152L196,33.03133467716248L197.16666666666669,21.560860780967886L198.33333333333334,19.884996149595736L199.5,6.226979697737789L200.66666666666666,21.34815722286328L201.83333333333334,25.5292061947562L203,30.356913260387046L204.16666666666666,30.40943182692925L205.33333333333331,34.9631435989499L206.5,31.501496016929167L207.66666666666669,34.83841752287722L208.83333333333334,37.309299493294816L210,33.26874556092136L211.16666666666666,36.70657149998971L212.33333333333331,25.202062540344144L213.5,31.913545358831726L214.66666666666669,23.302370713147553L215.83333333333334,32.065588124986306L217,30.064861784217243L218.16666666666666,35.33763087859003L219.33333333333334,36.56638923806099L220.5,27.450063731206342L221.66666666666666,34.60074200268559L222.83333333333331,33.25461498997197L224,34.2211696916913L225.16666666666669,33.425827520733776L226.33333333333334,30.990721694019868L227.5,29.97853028737751L228.66666666666666,32.46658678509738L229.83333333333331,34.1450085190412L231,35.52874150439959L232.16666666666669,32.78895222762145L233.33333333333334,32.69594722043823L234.5,25.06766739995095L235.66666666666666,29.217796542112893L236.83333333333334,23.014218536534827L238,28.900790557574595L239.16666666666666,21.315084119624714L240.33333333333331,17.352876489154596L241.5,25.31455680894382L242.66666666666669,17.74140773992258L243.83333333333334,24.60089368570158L245,26.976971434046703L246.16666666666666,29.766086682373214L247.33333333333331,26.8903430895173L248.5,32.80867468572637L249.66666666666669,23.953085899692667L250.83333333333334,30.227889518941566L252,31.108871429565625L253.16666666666666,30.350873576046865L254.33333333333334,32.99893660214056L255.5,28.051442239680938" style="fill: none;" fill="none"></path></g><g><path stroke="rgb(0, 119, 187)" stroke-width="2px" d="M25.666666666666664,-6.157040835886562L26.833333333333336,14.482087797189479L28,19.82757251330503L29.166666666666668,29.930809398899783L30.333333333333336,37.61254869996898L31.5,51.298576627931524L32.666666666666664,49.010623767136224L33.833333333333336,58.601251673540006L35,61.41598974180599L36.16666666666667,57.89804918287791L37.333333333333336,58.14866766669283L38.5,63.40677959445705L39.666666666666664,66.91354937182062L40.833333333333336,73.5718596930451L42,70.22615310092188L43.16666666666667,70.67632703675677L44.33333333333333,71.4205667622356L45.5,70.80586790264876L46.666666666666664,79.94749489398542L47.833333333333336,82.8146799517928L49,85.70193314189522L50.166666666666664,88.81283460559484L51.33333333333333,85.40580636390456L52.5,83.85427994071935L53.66666666666667,83.78221382477756L54.833333333333336,86.30289393829874L56,89.60813762716646L57.166666666666664,90.34576565105232L58.333333333333336,94.03092694811939L59.5,92.07374474525335L60.66666666666667,92.60495644912517L61.83333333333333,93.74244535191748L63,95.63416878271016L64.16666666666666,96.35823255742125L65.33333333333333,94.66648250226983L66.5,90.69754898388553L67.66666666666667,91.72990208283211L68.83333333333333,96.3594685271586L70,97.74343869530128L71.16666666666666,92.69576078555245L72.33333333333334,95.4931398799227L73.5,99.95500291962472L74.66666666666667,103.05477432270709L75.83333333333333,97.34306428790153L77,96.49342216703133L78.16666666666667,99.39458946266033L79.33333333333333,97.87790525361794L80.5,98.31762386086878L81.66666666666667,100.77226656392392L82.83333333333333,101.94966956684442L84,102.2183369488092L85.16666666666666,103.37282761160088L86.33333333333334,103.0969140113802L87.5,106.66621759304012L88.66666666666666,101.6960693095232L89.83333333333334,104.14325313413802L91,107.37438686755124L92.16666666666667,109.06818631212016L93.33333333333333,104.72003497910546L94.5,106.68357502837213L95.66666666666667,105.02124734055536L96.83333333333333,105.34703245241367L98,109.71869557666139L99.16666666666667,110.1601642749748L100.33333333333333,103.98170881641158L101.5,105.73392084820419L102.66666666666666,109.63718788852304L103.83333333333334,109.10578108924632L105,107.08696500002148L106.16666666666666,112.29972053968193L107.33333333333334,107.51959782959987L108.5,106.30640954328757L109.66666666666667,106.27839667411556L110.83333333333333,101.86605665452427L112,101.81657677988498L113.16666666666667,110.56068946659737L114.33333333333333,110.24625701034172L115.5,114.52969314529958L116.66666666666667,111.16711677714862L117.83333333333333,111.22732631209301L119,112.77700229074243L120.16666666666666,111.37682137719206L121.33333333333334,112.5211077131713L122.5,110.3091761635473L123.66666666666666,111.6493346957404L124.83333333333334,112.38727030444375L126,112.47725521378655L127.16666666666667,115.26157207282148L128.33333333333331,118.40248564357616L129.5,118.7173342005912L130.66666666666666,119.97236441233775L131.83333333333334,112.61245345746887L133,110.40309069440013L134.16666666666669,97.28679534605293L135.33333333333334,104.13655756480186L136.5,105.33786635021382L137.66666666666666,103.11122940313825L138.83333333333334,109.99108439166552L140,108.8410571234179L141.16666666666666,111.49288858751967L142.33333333333331,112.10758351433584L143.5,115.14827901094142L144.66666666666669,112.24366418581596L145.83333333333334,115.14029410398837L147,117.77641303370496L148.16666666666666,117.6288414825803L149.33333333333334,118.1468010491017L150.5,114.0245012656381L151.66666666666666,112.6732867655474L152.83333333333331,115.81583549841154L154,115.37945746817535L155.16666666666669,113.16524076603858L156.33333333333334,110.99418330754642L157.5,115.2842671714175L158.66666666666666,117.44558072817017L159.83333333333331,119.62281934935861L161,116.1602275927008L162.16666666666669,115.19066132540348L163.33333333333334,119.12393523594645L164.5,122.67603968465869L165.66666666666666,118.42139134219018L166.83333333333334,114.80568961030679L168,115.64449668244382L169.16666666666666,118.77960494229711L170.33333333333331,116.41265809458207L171.5,109.52847278548306L172.66666666666669,108.43362196226731L173.83333333333334,108.60988333666214L175,106.84087030675344L176.16666666666666,113.00784576765497L177.33333333333331,116.03743579168201L178.5,119.85649431335378L179.66666666666669,112.95949293009906L180.83333333333334,115.54671859522145L182,113.43934705602813L183.16666666666666,110.3826738330584L184.33333333333334,112.1967985518492L185.5,111.51126951978902L186.66666666666666,115.26240150813044L187.83333333333331,116.34858716418613L189,110.1138741593973L190.16666666666669,108.40165579923487L191.33333333333334,100.6220400178939L192.5,88.21224128750025L193.66666666666666,92.75401807038223L194.83333333333331,96.52875817423008L196,96.05912795904244L197.16666666666669,95.42055020357945L198.33333333333334,93.15453430667984L199.5,85.70396350297611L200.66666666666666,82.85087401433755L201.83333333333334,87.94339835383873L203,97.13021202408302L204.16666666666666,111.03148913576024L205.33333333333331,116.23777061101089L206.5,117.86373922941858L207.66666666666669,114.12087031911477L208.83333333333334,110.42560447162786L210,113.49096327845096L211.16666666666666,113.14190696849727L212.33333333333331,118.18021526321354L213.5,119.47815768232692L214.66666666666669,118.67502672142237L215.83333333333334,105.3440954653409L217,108.25271683025282L218.16666666666666,104.69953752689314L219.33333333333334,109.50299549062701L220.5,113.13004537081511L221.66666666666666,107.90794701847905L222.83333333333331,100.93303339644358L224,108.23999370195916L225.16666666666669,113.549067281833L226.33333333333334,117.38850261637612L227.5,119.95326142709877L228.66666666666666,121.00265961886302L229.83333333333331,121.64495900154624L231,120.0906951527626L232.16666666666669,110.05532427911943L233.33333333333334,110.6274606769382L234.5,116.97761187941427L235.66666666666666,114.62077004188654L236.83333333333334,115.26139528318856L238,120.83951056936152L239.16666666666666,119.28321075283748L240.33333333333331,111.41727366830862L241.5,108.59879951230262L242.66666666666669,109.65820771069274L243.83333333333334,110.18360163218347L245,112.80209989694696L246.16666666666666,121.1753934273001L247.33333333333331,113.65548156075934L248.5,116.55799678071295L249.66666666666669,119.54013413133595L250.83333333333334,118.41683103288634L252,111.14733437565224L253.16666666666666,114.9785206715301L254.33333333333334,119.76007078170986L255.5,122.96736943054326" style="fill: none;" fill="none"></path></g></g></g></g><g opacity="0.2"><g><g><g><path stroke="rgb(204, 51, 17)" stroke-width="2px" d="M23.333333333333332,-30.83038287162782L24.5,43.36789340972902L25.666666666666664,53.26887137889862L26.833333333333336,50.607531380653384L28,52.64780504703522L29.166666666666668,60.51972372531891L30.333333333333336,61.07825691699982L31.5,57.01673264503479L32.666666666666664,43.04057581424715L33.833333333333336,69.19866366386414L35,40.00330491065981L36.16666666666667,70.11311800479889L37.333333333333336,55.1229885339737L38.5,70.45119376182556L39.666666666666664,71.88662321567536L40.833333333333336,53.24502093791962L42,67.77753598690033L43.16666666666667,61.61727900505066L44.33333333333333,34.640435647964495L45.5,69.19194777011872L46.666666666666664,63.33665390014649L47.833333333333336,65.44042618274689L49,67.27358932495117L50.166666666666664,69.20514614582062L51.33333333333333,65.15588660240174L52.5,64.7002031326294L53.66666666666667,66.0184916973114L54.833333333333336,67.68687672615052L56,60.68320746421814L57.166666666666664,63.465306234359744L58.333333333333336,64.6175010919571L59.5,54.83681507110596L60.66666666666667,61.956054997444156L61.83333333333333,54.573897910118106L63,46.379096460342424L64.16666666666666,57.62358207702637L65.33333333333333,43.93176324367525L66.5,60.74052066802979L67.66666666666667,65.89929254055023L68.83333333333333,37.883724284172075L70,60.495226097106936L71.16666666666666,56.77988333702088L72.33333333333334,57.800009560585025L73.5,58.046959233284L74.66666666666667,16.914507818222063L75.83333333333333,59.60521633625031L77,55.991142463684085L78.16666666666667,61.81113810539246L79.33333333333333,16.80370087623598L80.5,62.18715388774872L81.66666666666667,48.45109291076662L82.83333333333333,59.34727509021759L84,59.407856059074405L85.16666666666666,36.64762849807741L86.33333333333334,58.093906831741336L87.5,51.422913026809695L88.66666666666666,60.79222137928009L89.83333333333334,49.12617285251619L91,58.267151427268985L92.16666666666667,59.84139723777771L93.33333333333333,51.01676590442658L94.5,59.039256405830386L95.66666666666667,56.82330853939057L96.83333333333333,48.03392238616945L98,54.94951052665711L99.16666666666667,35.97952969074251L100.33333333333333,51.21900660991669L101.5,45.363161039352434L102.66666666666666,50.91954989433289L103.83333333333334,49.389249157905596L105,54.87051124572754L106.16666666666666,57.12755019664765L107.33333333333334,39.0990252017975L108.5,59.73143906593323L109.66666666666667,11.213223290443437L110.83333333333333,59.614308786392215L112,47.1306505918503L113.16666666666667,52.77836711406708L114.33333333333333,51.412642908096316L115.5,31.901189160347002L116.66666666666667,47.584859323501604L117.83333333333333,46.4327175140381L119,49.79801685810091L120.16666666666666,30.76498301029207L121.33333333333334,51.461319875717166L122.5,54.21690518856049L123.66666666666666,22.717878174781816L124.83333333333334,53.28825516700745L126,51.42056829929352L127.16666666666667,47.966222357749956L128.33333333333331,49.06184668540956L129.5,23.309099626541155L130.66666666666666,50.276532244682315L131.83333333333334,50.0341977596283L133,-32.38354735374452L134.16666666666669,50.73936660289765L135.33333333333334,47.19692893028261L136.5,30.46672518253328L137.66666666666666,51.037136387825015L138.83333333333334,49.442689847946184L140,37.122854900360124L141.16666666666666,54.4844375371933L142.33333333333331,43.538846325874346L143.5,53.003895950317386L144.66666666666669,41.00857765674593L145.83333333333334,41.04962630271913L147,49.42063243389131L148.16666666666666,28.275274944305437L149.33333333333334,49.0833842277527L150.5,30.31340546607973L151.66666666666666,45.885037970542925L152.83333333333331,25.60425896644594L154,36.44539840221407L155.16666666666669,19.94883985519411L156.33333333333334,39.6608898162842L157.5,44.00757963657381L158.66666666666666,44.57749695777895L159.83333333333331,48.75988609790804L161,48.32801063060762L162.16666666666669,49.905046772956865L163.33333333333334,46.44329531192781L164.5,45.77913267612459L165.66666666666666,35.20133478641512L166.83333333333334,33.966353011131304L168,37.27897555828096L169.16666666666666,33.48235244750978L170.33333333333331,30.81869955062868L171.5,35.075451564788835L172.66666666666669,9.803150844573992L173.83333333333334,27.09273655414583L175,-18.050408411026012L176.16666666666666,18.53116030693056L177.33333333333331,-1.4118930578231925L178.5,32.175076675415056L179.66666666666669,30.000315380096453L180.83333333333334,37.932825636863726L182,37.215073776245134L183.16666666666666,30.479520392417925L184.33333333333334,38.12906129360201L185.5,23.370030713081377L186.66666666666666,35.243210983276384L187.83333333333331,19.53706963062288L189,40.37006909847261L190.16666666666669,35.39371914863588L191.33333333333334,-33.01503233909608L192.5,21.08485503196718L193.66666666666666,14.43034858703615L194.83333333333331,43.55608696937563L196,44.44895071983339L197.16666666666669,4.355149936676042L198.33333333333334,17.371199202537554L199.5,-14.260044980049145L200.66666666666666,44.02992351055147L201.83333333333334,31.800779652595537L203,37.59847385883333L204.16666666666666,30.48820967674257L205.33333333333331,41.79371125698091L206.5,26.309024643898027L207.66666666666669,39.84379978179933L208.83333333333334,41.01562244892122L210,27.207914662361162L211.16666666666666,41.86331040859224L212.33333333333331,7.9452991008758715L213.5,41.98076958656313L214.66666666666669,10.385608744621294L215.83333333333334,45.21041424274446L217,27.063772273063677L218.16666666666666,43.24678452014925L219.33333333333334,38.40952677726747L220.5,13.775575470924394L221.66666666666666,45.3267594099045L222.83333333333331,31.235424470901506L224,35.67100174427034L225.16666666666669,32.2328142642975L226.33333333333334,27.33806295394899L227.5,28.460243177413957L228.66666666666666,36.19867153167726L229.83333333333331,36.66264111995699L231,37.60434098243715L232.16666666666669,28.67926831245424L233.33333333333334,32.55643970966341L234.5,13.625247669219988L235.66666666666666,35.44299025535585L236.83333333333334,13.708851528167742L238,37.73064858913423L239.16666666666666,9.936524462699907L240.33333333333331,11.409565043449419L241.5,37.25707728862764L242.66666666666669,6.381684136390703L243.83333333333334,34.890122604370134L245,30.541088056564348L246.16666666666666,33.94975955486299L247.33333333333331,22.576727700233477L248.5,41.686172080039995L249.66666666666669,10.669702720642107L250.83333333333334,39.64009494781496L252,32.430344295501726L253.16666666666666,29.213876795768755L254.33333333333334,36.971031141281145L255.5,20.630200695991533" style="fill: none;" fill="none"></path></g><g><path stroke="rgb(0, 119, 187)" stroke-width="2px" d="M24.5,-26.929414081573498L25.666666666666664,31.6717665910721L26.833333333333336,38.75370306968691L28,26.806637358665483L29.166666666666668,43.907223176956194L30.333333333333336,48.59755880832674L31.5,71.25293673276902L32.666666666666664,45.6363377094269L33.833333333333336,72.84221638441086L35,65.61256737709046L36.16666666666667,52.640282821655276L37.333333333333336,58.52377707958222L38.5,71.28364629745484L39.666666666666664,72.16958196163178L40.833333333333336,83.55462921857834L42,65.20900900363922L43.16666666666667,71.35147364139557L44.33333333333333,72.53681297302246L45.5,69.88387579917908L46.666666666666664,93.65943403244019L47.833333333333336,87.11536319255829L49,90.03275592327118L50.166666666666664,93.47914994955063L51.33333333333333,80.29528821706772L52.5,81.52699692249298L53.66666666666667,83.6741148352623L54.833333333333336,90.08391023874283L56,94.56600011587143L57.166666666666664,91.45220727920533L58.333333333333336,99.55866767168045L59.5,89.13797183036804L60.66666666666667,93.40177394151688L61.83333333333333,95.44867862462998L63,98.47175384759903L64.16666666666666,97.44432820081711L65.33333333333333,92.12885744571686L66.5,84.74414874315262L67.66666666666667,93.27843172550202L68.83333333333333,103.30381817817688L70,99.8193939447403L71.16666666666666,85.12424392700196L72.33333333333334,99.68920851945877L73.5,106.64779747724533L74.66666666666667,107.70443142652512L75.83333333333333,88.77549923658371L77,95.21895898580551L78.16666666666667,103.74634040594101L79.33333333333333,95.60287894010544L80.5,98.97720177173615L81.66666666666667,104.45423061847687L82.83333333333333,103.71577407121659L84,102.62133802175522L85.16666666666666,105.10456360578537L86.33333333333334,102.68304361104965L87.5,112.02017296552658L88.66666666666666,94.24084688425064L89.83333333333334,107.81402887105942L91,112.22108746767044L92.16666666666667,111.60888547897339L93.33333333333333,98.19780797958374L94.5,109.62888510227204L95.66666666666667,102.52775580883026L96.83333333333333,105.83571012020111L98,116.27619026303292L99.16666666666667,110.82236732244492L100.33333333333333,94.71402562856674L101.5,108.3622388958931L102.66666666666666,115.49208844900132L103.83333333333334,108.30867089033127L105,104.05874086618424L106.16666666666666,120.1188538491726L107.33333333333334,100.34941376447678L108.5,104.48662711381913L109.66666666666667,106.23637737035752L110.83333333333333,95.24754662513733L112,101.74235696792603L113.16666666666667,123.67685849666596L114.33333333333333,109.77460832595825L115.5,120.95484734773636L116.66666666666667,106.12325222492218L117.83333333333333,111.31764061450959L119,115.10151625871659L120.16666666666666,109.27655000686646L121.33333333333334,114.2375372171402L122.5,106.99127883911133L123.66666666666666,113.65957249403L124.83333333333334,113.49417371749878L126,112.61223257780075L127.16666666666667,119.4380473613739L128.33333333333331,123.11385599970818L129.5,119.18960703611374L130.66666666666666,121.85490972995758L131.83333333333334,101.57258702516556L133,107.08904654979706L134.16666666666669,77.61235232353211L135.33333333333334,114.41120089292527L136.5,107.13982952833176L137.66666666666666,99.77127398252487L138.83333333333334,120.31086687445641L140,107.11601622104645L141.16666666666666,115.47063578367234L142.33333333333331,113.02962590456009L143.5,119.70932225584984L144.66666666666669,107.88674194812775L145.83333333333334,119.48523898124695L147,121.73059142827988L148.16666666666666,117.40748415589333L149.33333333333334,118.92374039888382L150.5,107.84105159044266L151.66666666666666,110.64646501541138L152.83333333333331,120.52965859770775L154,114.72489042282105L155.16666666666669,109.84391571283341L156.33333333333334,107.7375971198082L157.5,121.71939296722412L158.66666666666666,120.68755106329918L159.83333333333331,122.88867728114128L161,110.96633995771408L162.16666666666669,113.73631192445755L163.33333333333334,125.02384610176087L164.5,128.00419635772704L165.66666666666666,112.0394188284874L166.83333333333334,109.38213701248169L168,116.90270729064942L169.16666666666666,123.48226733207703L170.33333333333331,112.8622378230095L171.5,99.20219482183457L172.66666666666669,106.7913457274437L173.83333333333334,108.8742753982544L175,104.18735076189041L176.16666666666666,122.25830895900727L177.33333333333331,120.58182082772255L178.5,125.58508209586144L179.66666666666669,102.61399085521698L180.83333333333334,119.42755709290505L182,110.27828974723816L183.16666666666666,105.79766399860382L184.33333333333334,114.9179856300354L185.5,110.48297597169876L186.66666666666666,120.88909949064255L187.83333333333331,117.97786564826966L189,100.76180465221405L190.16666666666669,105.83332825899124L191.33333333333334,88.95261634588242L192.5,69.59754319190979L193.66666666666666,99.5666832447052L194.83333333333331,102.19086833000183L196,95.35468263626099L197.16666666666669,94.46268357038498L198.33333333333334,89.75551046133042L199.5,74.5281072974205L200.66666666666666,78.5712397813797L201.83333333333334,95.58218486309052L203,110.91043252944947L204.16666666666666,131.88340480327605L205.33333333333331,124.04719282388687L206.5,120.30269215703011L207.66666666666669,108.50656695365906L208.83333333333334,104.8827057003975L210,118.08900148868561L211.16666666666666,112.61832250356674L212.33333333333331,125.73767770528794L213.5,121.42507131099701L214.66666666666669,117.47033028006554L215.83333333333334,85.34769858121872L217,112.6156488776207L218.16666666666666,99.36976857185364L219.33333333333334,116.7081824362278L220.5,118.57062019109726L221.66666666666666,100.07479948997498L222.83333333333331,90.47066296339035L224,119.20043416023255L225.16666666666669,121.51267765164376L226.33333333333334,123.14765561819077L227.5,123.80039964318276L228.66666666666666,122.5767569065094L229.83333333333331,122.60840807557106L231,117.75929937958718L232.16666666666669,95.00226796865464L233.33333333333334,111.48566527366638L234.5,126.50283868312836L235.66666666666666,111.08550728559494L236.83333333333334,116.2223331451416L238,129.20668349862098L239.16666666666666,116.94876102805138L240.33333333333331,99.61836804151535L241.5,104.37108827829361L242.66666666666669,111.2473200082779L243.83333333333334,110.97169251441956L245,116.72984729409218L246.16666666666666,133.7353337228298L247.33333333333331,102.37561376094818L248.5,120.91176961064339L249.66666666666669,124.01334015727043L250.83333333333334,116.73187638521195L252,100.24308938980103L253.16666666666666,120.72530011534691L254.33333333333334,126.93239594697953L255.5,127.77831740379334" style="fill: none;" fill="none"></path></g></g></g></g></g></g><g transform="translate(50, 178)" clip-path="url(#clip_1)"><clipPath id="clip_1"><rect width="280" height="22"></rect></clipPath><g><g><line x1="0" y1="0" x2="0" y2="5" style="visibility: inherit;" fill="rgb(0, 0, 0)" stroke="rgb(204, 204, 204)" stroke-width="1px"></line><line x1="23.333333333333332" y1="0" x2="23.333333333333332" y2="5" style="visibility: inherit;" fill="rgb(0, 0, 0)" stroke="rgb(204, 204, 204)" stroke-width="1px"></line><line x1="46.666666666666664" y1="0" x2="46.666666666666664" y2="5" style="visibility: inherit;" fill="rgb(0, 0, 0)" stroke="rgb(204, 204, 204)" stroke-width="1px"></line><line x1="70" y1="0" x2="70" y2="5" style="visibility: inherit;" fill="rgb(0, 0, 0)" stroke="rgb(204, 204, 204)" stroke-width="1px"></line><line x1="93.33333333333333" y1="0" x2="93.33333333333333" y2="5" style="visibility: inherit;" fill="rgb(0, 0, 0)" stroke="rgb(204, 204, 204)" stroke-width="1px"></line><line x1="116.66666666666667" y1="0" x2="116.66666666666667" y2="5" style="visibility: inherit;" fill="rgb(0, 0, 0)" stroke="rgb(204, 204, 204)" stroke-width="1px"></line><line x1="140" y1="0" x2="140" y2="5" style="visibility: inherit;" fill="rgb(0, 0, 0)" stroke="rgb(204, 204, 204)" stroke-width="1px"></line><line x1="163.33333333333334" y1="0" x2="163.33333333333334" y2="5" style="visibility: inherit;" fill="rgb(0, 0, 0)" stroke="rgb(204, 204, 204)" stroke-width="1px"></line><line x1="186.66666666666666" y1="0" x2="186.66666666666666" y2="5" style="visibility: inherit;" fill="rgb(0, 0, 0)" stroke="rgb(204, 204, 204)" stroke-width="1px"></line><line x1="210" y1="0" x2="210" y2="5" style="visibility: inherit;" fill="rgb(0, 0, 0)" stroke="rgb(204, 204, 204)" stroke-width="1px"></line><line x1="233.33333333333334" y1="0" x2="233.33333333333334" y2="5" style="visibility: inherit;" fill="rgb(0, 0, 0)" stroke="rgb(204, 204, 204)" stroke-width="1px"></line><line x1="256.66666666666663" y1="0" x2="256.66666666666663" y2="5" style="visibility: inherit;" fill="rgb(0, 0, 0)" stroke="rgb(204, 204, 204)" stroke-width="1px"></line><line x1="280" y1="0" x2="280" y2="5" style="visibility: inherit;" fill="rgb(0, 0, 0)" stroke="rgb(204, 204, 204)" stroke-width="1px"></line></g><g transform="translate(0, 8)"><text x="0" y="0" dx="0em" dy="0.95em" style="text-anchor: middle; visibility: hidden; font-family: &quot;Helvetica Neue&quot;, sans-serif; font-size: 12px; font-weight: 200;" fill="rgb(50, 49, 63)" stroke="none" stroke-width="1px">-20</text><text x="23.333333333333332" y="0" dx="0em" dy="0.95em" style="text-anchor: middle; visibility: inherit; font-family: &quot;Helvetica Neue&quot;, sans-serif; font-size: 12px; font-weight: 200;" fill="rgb(50, 49, 63)" stroke="none" stroke-width="1px">0</text><text x="46.666666666666664" y="0" dx="0em" dy="0.95em" style="text-anchor: middle; visibility: hidden; font-family: &quot;Helvetica Neue&quot;, sans-serif; font-size: 12px; font-weight: 200;" fill="rgb(50, 49, 63)" stroke="none" stroke-width="1px">20</text><text x="70" y="0" dx="0em" dy="0.95em" style="text-anchor: middle; visibility: inherit; font-family: &quot;Helvetica Neue&quot;, sans-serif; font-size: 12px; font-weight: 200;" fill="rgb(50, 49, 63)" stroke="none" stroke-width="1px">40</text><text x="93.33333333333333" y="0" dx="0em" dy="0.95em" style="text-anchor: middle; visibility: hidden; font-family: &quot;Helvetica Neue&quot;, sans-serif; font-size: 12px; font-weight: 200;" fill="rgb(50, 49, 63)" stroke="none" stroke-width="1px">60</text><text x="116.66666666666667" y="0" dx="0em" dy="0.95em" style="text-anchor: middle; visibility: inherit; font-family: &quot;Helvetica Neue&quot;, sans-serif; font-size: 12px; font-weight: 200;" fill="rgb(50, 49, 63)" stroke="none" stroke-width="1px">80</text><text x="140" y="0" dx="0em" dy="0.95em" style="text-anchor: middle; visibility: hidden; font-family: &quot;Helvetica Neue&quot;, sans-serif; font-size: 12px; font-weight: 200;" fill="rgb(50, 49, 63)" stroke="none" stroke-width="1px">100</text><text x="163.33333333333334" y="0" dx="0em" dy="0.95em" style="text-anchor: middle; visibility: inherit; font-family: &quot;Helvetica Neue&quot;, sans-serif; font-size: 12px; font-weight: 200;" fill="rgb(50, 49, 63)" stroke="none" stroke-width="1px">120</text><text x="186.66666666666666" y="0" dx="0em" dy="0.95em" style="text-anchor: middle; visibility: hidden; font-family: &quot;Helvetica Neue&quot;, sans-serif; font-size: 12px; font-weight: 200;" fill="rgb(50, 49, 63)" stroke="none" stroke-width="1px">140</text><text x="210" y="0" dx="0em" dy="0.95em" style="text-anchor: middle; visibility: inherit; font-family: &quot;Helvetica Neue&quot;, sans-serif; font-size: 12px; font-weight: 200;" fill="rgb(50, 49, 63)" stroke="none" stroke-width="1px">160</text><text x="233.33333333333334" y="0" dx="0em" dy="0.95em" style="text-anchor: middle; visibility: hidden; font-family: &quot;Helvetica Neue&quot;, sans-serif; font-size: 12px; font-weight: 200;" fill="rgb(50, 49, 63)" stroke="none" stroke-width="1px">180</text><text x="256.66666666666663" y="0" dx="0em" dy="0.95em" style="text-anchor: middle; visibility: inherit; font-family: &quot;Helvetica Neue&quot;, sans-serif; font-size: 12px; font-weight: 200;" fill="rgb(50, 49, 63)" stroke="none" stroke-width="1px">200</text><text x="280" y="0" dx="0em" dy="0.95em" style="text-anchor: middle; visibility: hidden; font-family: &quot;Helvetica Neue&quot;, sans-serif; font-size: 12px; font-weight: 200;" fill="rgb(50, 49, 63)" stroke="none" stroke-width="1px">220</text></g><line x1="0" y1="0" x2="280" y2="0" fill="rgb(0, 0, 0)" stroke="rgb(204, 204, 204)" stroke-width="1px"></line></g></g></g></g></svg>